<svg id="a03203e3-8aaa-4804-b55e-8fd1d49363c2" data-name="Layer 1" xmlns="http://www.w3.org/2000/svg" viewBox="0 0 726.3 315.4"><path d="M695.8,32C675.5,11.6,646.3,0,608.1,0H477.2V69.5a57.26,57.26,0,0,1,7.6,6.4,53.88,53.88,0,0,1,11,16.7,53.51,53.51,0,0,1,0,40.6,53.88,53.88,0,0,1-11,16.7,51.53,51.53,0,0,1-7.6,6.4v159h81.3V223.5h49.6q57.3,0,87.7-30.6c20.3-20.4,30.5-41.9,30.5-78.9S716.1,52.4,695.8,32ZM595,156.4H558.5v-87H595q48.75,0,48.7,43.5T595,156.4Z" transform="translate(0 0.1)" style="fill:#fff"/><path d="M488.8,96.2a44.18,44.18,0,0,0-9.1-13.8,43,43,0,0,0-13.4-9.3,40.77,40.77,0,0,0-32.6,0,43.52,43.52,0,0,0-13.4,9.3,44.18,44.18,0,0,0-9.1,13.8,44.41,44.41,0,0,0,0,33.6,44.18,44.18,0,0,0,9.1,13.8,41.41,41.41,0,0,0,13.4,9.3,40.77,40.77,0,0,0,32.6,0,43.52,43.52,0,0,0,13.4-9.3,44.18,44.18,0,0,0,9.1-13.8,44.41,44.41,0,0,0,0-33.6" transform="translate(0 0.1)" style="fill:#83c9f4"/><path d="M419.8,202.8V154.9a5.5,5.5,0,0,1-.9-.7c-.3-.2-.6-.5-.9-.7a5,5,0,0,1-.8-.7c-.3-.3-.7-.6-1-.9l-.6-.6c-.5-.5-1.1-1-1.6-1.6A52.17,52.17,0,0,1,403,133a53.51,53.51,0,0,1,0-40.6,53.88,53.88,0,0,1,11-16.7c.5-.5,1-1.1,1.6-1.6l.6-.6c.3-.3.7-.6,1-.9s.5-.4.8-.7a8.74,8.74,0,0,1,1-.8c.3-.2.5-.4.8-.6h0v-.8l.7-69.8H338.9l.9,69.2-40.8.3c3.2,5.6,9.5,18.8,11.4,25.1,10.3,34.9,9.1,53.9,9.1,58.2h18.4l.3,26.5h0V219h0q0,48.15,30.9,72.2c20.6,16,51.4,24.1,92.2,24.1h0V246.8h0Q419.75,246.8,419.8,202.8Z" transform="translate(0 0.1)" style="fill:#fff"/><path d="M305.6,153H153l.4,58.1,74.6-.5c-15.8,23-41.8,38.1-71.2,38.1-48.2,0-87.3-40.5-87.3-90.4s39.1-90.4,87.3-90.4c29.1,0,54.8,16,70.7,38.9,14.6-8.6,23.5-13.8,39-23l21.2-12.4a.1.1,0,0,1,0-.2,4.35,4.35,0,0,1-.6-.7C259.1,27.7,211.2.3,156.5.3a155.69,155.69,0,0,0-118.9,55A150.62,150.62,0,0,0,17,84.8,143.63,143.63,0,0,0,1.7,133.4c-.3,2.2-.5,4.4-.7,6.6a171.76,171.76,0,0,0-1,17.7,150.09,150.09,0,0,0,1.3,20.2c.1.8.1,1.6.2,2.3a135.65,135.65,0,0,0,14.1,46.1c25.4,52.6,79,88.8,141,88.8a142.23,142.23,0,0,0,59-12.4,134.66,134.66,0,0,0,24.1-11.2C266.2,276,283,253.2,294.3,225a169.75,169.75,0,0,0,10.9-44.4c.3-2.9.6-25.8.6-27.7C305.8,153,305.7,153,305.6,153Z" transform="translate(0 0.1)" style="fill:#fff"/></svg>