<svg id="a89e9433-2f2f-457e-934a-9abe1f837044" data-name="Layer 1" xmlns="http://www.w3.org/2000/svg" viewBox="0 0 726.28 315.28"><path d="M695.83,32c-20.3-20.36-49.55-32-87.74-32H477.24V69.46a51.71,51.71,0,0,1,7.56,6.41,53.45,53.45,0,0,1,11,16.7,53.46,53.46,0,0,1,0,40.58,53.62,53.62,0,0,1-11,16.7,52.14,52.14,0,0,1-7.56,6.41v159H558.5V223.49h49.59q57.28,0,87.74-30.55c20.3-20.37,30.45-41.89,30.45-78.93S716.13,52.38,695.83,32ZM595,156.39H558.5v-87H595q48.72,0,48.72,43.51T595,156.39Z" style="fill:#1d4878"/><path d="M488.81,96.19a44.25,44.25,0,0,0-9.09-13.78,43.1,43.1,0,0,0-13.43-9.33,41,41,0,0,0-32.64,0,42.82,42.82,0,0,0-13.43,9.33,44,44,0,0,0-9.09,13.78,44.16,44.16,0,0,0,0,33.5,44.13,44.13,0,0,0,9.09,13.78,42.51,42.51,0,0,0,13.43,9.32,41,41,0,0,0,32.64,0,42.85,42.85,0,0,0,13.43-9.32,44.13,44.13,0,0,0,9.09-13.78,44.16,44.16,0,0,0,0-33.5" style="fill:#83c9f4"/><path d="M419.76,202.77v-47.9l-.85-.67c-.3-.24-.61-.48-.9-.73l-.78-.67-1-.9-.61-.56q-.81-.76-1.59-1.56a53.3,53.3,0,0,1-11-16.7,53.46,53.46,0,0,1,0-40.58,53.53,53.53,0,0,1,11-16.7q.78-.8,1.59-1.56l.6-.55c.34-.31.68-.62,1-.92l.76-.65c.31-.26.63-.51.95-.76s.53-.43.81-.64h0V69.9L420.41.13v0H338.77v0h0l.93,69.15L299,69.36c3.16,5.57,9.54,18.84,11.41,25.13,10.34,34.87,9.08,53.92,9.08,58.18h18.36l.26,26.54h0V219q0,48.15,30.9,72.21t92.25,24.07V246.76Q419.75,246.75,419.76,202.77Z" style="fill:#1d4878"/><path d="M305.59,153H260.44L153,153l.4,58.1,74.62-.53c-15.83,23-41.8,38.05-71.17,38.05-48.23,0-87.33-40.47-87.33-90.39s39.1-90.39,87.33-90.39c29.09,0,54.84,16,70.71,38.89,14.63-8.61,23.52-13.8,39-23L287.8,71.32l-.09-.13.09,0-.56-.66C259.26,27.67,211.39.28,156.62.28a155.89,155.89,0,0,0-118.93,55A146.93,146.93,0,0,0,17,84.82a140.53,140.53,0,0,0-15.3,48.61C1.44,135.6,1.2,137.8,1,140a159.33,159.33,0,0,0,.29,37.89c.08.78.15,1.56.25,2.33a136.74,136.74,0,0,0,14.09,46.07c25.36,52.58,79,88.84,141,88.84a142.85,142.85,0,0,0,59-12.4,141.58,141.58,0,0,0,24.13-11.17c26.47-15.46,43.26-38.27,54.56-66.51a167.32,167.32,0,0,0,10.89-44.39c.32-2.92.58-25.82.58-27.66Z" style="fill:#1d4878"/></svg>